<svg width="319" height="1097" viewBox="0 0 319 1097" fill="none" xmlns="http://www.w3.org/2000/svg">
            <path fill-rule="evenodd" clip-rule="evenodd" d="M218.17 44.8498C218.17 44.8498 223.767 55.8004 223.767 64.0133C226.375 68.941 228.347 88.1045 228.347 88.1045C228.347 88.1045 232.417 105.078 236.488 112.743C238.523 124.789 239.032 134.644 239.032 134.644C239.032 134.644 241.067 141.762 220.714 141.762C206.022 138.642 202.906 144.5 202.906 144.5C202.906 144.5 194.256 144.5 182.044 139.572C160.743 147.212 141.338 124.789 141.338 124.789C141.338 124.789 121.955 129.169 116.915 124.789C99.1061 127.527 100.124 122.599 98.0884 115.481C98.0884 91.9373 104.703 78.7966 104.703 78.7966C104.703 78.7966 102.668 48.1349 109.791 38.2795C115.388 10.903 141.338 5.42773 141.338 5.42773C141.338 5.42773 158.638 0.499983 167.797 0.499983C176.956 0.499983 191.712 2.6901 205.45 14.7357C215.117 23.2123 218.17 44.8498 218.17 44.8498Z" fill="black"/>
            <path fill-rule="evenodd" clip-rule="evenodd" d="M200.5 66C187.665 66 177.5 53.5 177.5 53.5C177.5 53.5 173.5 41.0001 161.207 42.5038C155.624 47.9526 148.62 40.094 143.381 47.9526C139.855 53.2401 148.671 60.0552 137.214 74.1533C130.577 82.3212 140.605 97.4077 140.605 103.896C140.605 103.896 154.227 120.005 134.5 126L128 149.665L173.463 149.595L171.999 124.954C206 103.896 200.5 72 200.5 66Z" fill="#FFC999"/>
            <path fill-rule="evenodd" clip-rule="evenodd" d="M252.761 988.434C250.292 848.104 197.221 552.296 189.597 476.109C181.975 399.922 209.09 374.12 235.089 386.69C261.088 399.264 268.866 575.046 268.866 575.046C268.866 575.046 270.657 609.45 277.442 648.627C301.973 790.256 284.755 990.448 284.755 990.448C284.755 990.448 280 1003.49 265.609 1001.75C251.22 1000.01 252.761 988.434 252.761 988.434Z" fill="#FFC999"/>
            <path fill-rule="evenodd" clip-rule="evenodd" d="M283.803 994.409C284.128 995.845 289.018 944.469 288.781 929.319C268.489 932 249.727 930.086 249.727 930.086C249.727 930.086 252.406 988.665 251.642 994.409C266.19 1003.21 283.803 994.409 283.803 994.409Z" fill="#597EF7"/>
            <path fill-rule="evenodd" clip-rule="evenodd" d="M279.635 1063.92C277.115 1084.23 266.19 1094.98 254.919 1096.16C240.963 1097.64 225.765 1093.7 223.31 1081.19C220.507 1066.91 227.855 1059.61 236.068 1039.19C244.279 1018.76 248.198 1001.3 251.258 986.75C251.258 986.75 261.726 980.626 258.918 998.237C256.643 1012.5 251.129 1052.61 241.431 1055.41C250.876 1054.65 270.275 1062.05 270.275 1062.05C270.275 1062.05 263.382 1051.33 263.893 1047.75C264.404 1044.18 270.109 1007.57 270.402 996.706C270.692 985.965 280.014 987.261 284.505 988.517C285.904 988.907 286.794 990.257 286.625 991.699C286.197 995.278 280.829 1054.31 279.635 1063.92Z" fill="#4E5C93"/>
            <path fill-rule="evenodd" clip-rule="evenodd" d="M274.616 1010.11C274.616 1010.11 286.258 985.732 274.616 983.306C265.426 981.391 256.621 981.009 255.472 983.306C255.045 984.161 255.088 992.111 252.027 1008.58C248.45 1027.79 239.309 1050.34 235.944 1054.9C230.584 1062.18 236.329 1062.56 249.346 1066.01C262.363 1069.45 266.956 1069.45 270.404 1062.56C273.849 1055.67 273.849 1025.04 274.616 1010.11Z" fill="#4E5C93"/>
            <path d="M250.376 1016.89C250.648 1016.19 251.436 1015.84 252.136 1016.11C253.861 1016.79 255.735 1017.7 257.738 1018.83C259.635 1019.9 261.621 1021.15 263.668 1022.54C266.11 1024.2 268.513 1025.98 270.775 1027.75L271.689 1028.48C271.981 1028.71 272.261 1028.93 272.527 1029.15L273.709 1030.13C274.743 1031.01 273.99 1032.7 272.644 1032.51C270.065 1032.16 266.959 1032.33 263.445 1032.97C260.247 1033.54 256.825 1034.48 253.317 1035.67C252.02 1036.12 250.759 1036.58 249.549 1037.05L248.716 1037.37L249.234 1037.54C253.18 1038.82 257.19 1041.07 261.184 1044.04L261.889 1044.57C264.216 1046.35 266.378 1048.26 268.32 1050.16L269.101 1050.94C269.225 1051.07 269.345 1051.19 269.463 1051.31L270.13 1052.01C270.447 1052.35 270.669 1052.6 270.788 1052.73C271.282 1053.3 271.225 1054.16 270.66 1054.65C270.095 1055.14 269.236 1055.09 268.741 1054.52L268.312 1054.05L268.146 1053.87C267.647 1053.34 267.068 1052.74 266.416 1052.1C264.548 1050.27 262.469 1048.44 260.236 1046.73C254.719 1042.51 249.21 1039.76 244.08 1039.15C242.723 1038.99 242.423 1037.15 243.66 1036.57L244.33 1036.27L245.658 1035.69C245.819 1035.62 245.985 1035.55 246.156 1035.48C248.099 1034.67 250.217 1033.86 252.44 1033.1C256.068 1031.87 259.617 1030.9 262.963 1030.29C264.655 1029.99 266.268 1029.78 267.795 1029.68L268.763 1029.63L267.75 1028.85C266.39 1027.81 264.988 1026.77 263.567 1025.77L262.14 1024.79C260.152 1023.44 258.228 1022.23 256.402 1021.2C254.504 1020.13 252.744 1019.27 251.15 1018.65C250.451 1018.38 250.104 1017.59 250.376 1016.89Z" fill="#CCD7EE"/>
            <path d="M263.678 1019.45C267.307 1019.02 270.491 1019.04 273.121 1019.63C273.854 1019.79 274.316 1020.51 274.153 1021.25C273.99 1021.98 273.264 1022.44 272.531 1022.28C270.246 1021.77 267.353 1021.75 264.003 1022.15C261.235 1022.49 258.267 1023.1 255.235 1023.9C254.225 1024.17 253.247 1024.45 252.311 1024.73L252.051 1024.81L252.48 1025.01C255.624 1026.54 258.683 1028.47 261.636 1030.72L262.519 1031.41C265.319 1033.62 267.854 1035.99 270.082 1038.36C270.707 1039.03 271.273 1039.66 271.776 1040.24L272.461 1041.05C272.65 1041.28 272.789 1041.45 272.877 1041.56C273.541 1042.42 272.988 1043.64 271.961 1043.75L271.723 1043.75L271.442 1043.75C269.758 1043.73 267.536 1043.76 264.975 1043.87C261.148 1044.03 257.375 1044.35 253.854 1044.87C247.674 1045.77 242.829 1047.18 239.89 1049.14C239.265 1049.56 238.421 1049.39 238.004 1048.77C237.588 1048.14 237.756 1047.3 238.381 1046.88C241.737 1044.64 246.915 1043.13 253.462 1042.18C257.083 1041.65 260.946 1041.32 264.858 1041.15L266.384 1041.09C266.878 1041.08 267.356 1041.06 267.818 1041.05L268.847 1041.04L268.539 1040.7L268.101 1040.23C265.959 1037.95 263.52 1035.67 260.833 1033.54C256.643 1030.23 252.244 1027.61 247.724 1025.93C246.542 1025.49 246.541 1023.82 247.722 1023.38L248.903 1022.97C249.139 1022.89 249.389 1022.8 249.653 1022.72C251.157 1022.22 252.802 1021.73 254.538 1021.27C257.684 1020.44 260.771 1019.81 263.678 1019.45Z" fill="#CCD7EE"/>
            <path fill-rule="evenodd" clip-rule="evenodd" d="M278.442 1067.92C278.442 1067.92 250.875 1044.95 225.605 1061.79C219.288 1075.88 222.943 1084.25 225.99 1088.6C227.251 1090.39 229.639 1092.9 231.705 1093.65C237.858 1095.87 253.992 1100.33 265.425 1092.81C279.973 1083.23 278.442 1067.92 278.442 1067.92Z" fill="#CCD7EE"/>
            <path d="M226.754 1061.97C226.942 1061.61 227.379 1061.48 227.731 1061.67C228.083 1061.86 228.216 1062.29 228.029 1062.65C224.868 1068.57 228.287 1076.5 232.899 1079.57C236.271 1081.82 248.977 1083.99 259.011 1083.54C263.577 1083.33 267.324 1080.44 270.307 1075.71C271.408 1073.96 272.324 1072.09 273.061 1070.21C273.319 1069.56 273.536 1068.95 273.714 1068.4L273.919 1067.73C274.025 1067.35 274.422 1067.12 274.807 1067.23C275.191 1067.33 275.418 1067.73 275.312 1068.11L275.15 1068.65L275.087 1068.85C274.901 1069.42 274.674 1070.06 274.405 1070.74C273.637 1072.7 272.682 1074.65 271.529 1076.48C268.318 1081.57 264.199 1084.75 259.077 1084.98C248.763 1085.45 235.779 1083.23 232.098 1080.77C226.932 1077.33 223.188 1068.65 226.754 1061.97Z" fill="#A3B5D6"/>
            <path d="M287.348 937.179C288.082 937.022 288.804 937.49 288.961 938.224C289.118 938.958 288.651 939.681 287.916 939.838L287.438 939.935C287.056 940.01 286.61 940.094 286.105 940.183L284.602 940.438C283.559 940.607 282.435 940.774 281.238 940.933C272.219 942.13 262.845 942.455 254.056 941.371C253.168 941.261 252.291 941.138 251.427 940.999C250.686 940.881 250.181 940.184 250.299 939.442C250.418 938.701 251.115 938.196 251.856 938.314C252.688 938.447 253.533 938.567 254.389 938.672C262.916 939.724 272.071 939.406 280.881 938.237C282.343 938.043 283.692 937.838 284.913 937.631L285.629 937.506C286.465 937.358 287.048 937.243 287.348 937.179Z" fill="#CCD7EE"/>
            <path d="M264.099 1004.28C264.724 1004.26 265.266 1004.66 265.446 1005.23L265.469 1005.34L265.589 1005.37L265.761 1005.44L266.723 1005.91L267.923 1006.52C268.343 1006.73 268.781 1006.96 269.236 1007.2C271.834 1008.57 274.434 1010.03 276.864 1011.53C279.235 1012.99 281.32 1014.41 283.046 1015.76C285.322 1017.55 286.931 1019.19 287.784 1020.72C288.927 1022.76 288.718 1024.74 286.93 1026.11C283.977 1028.39 280.057 1026.77 275.394 1022.52C273.665 1020.95 271.853 1019.03 269.989 1016.83C268.147 1014.66 266.352 1012.33 264.674 1010.01L264.244 1009.41L263.381 1008.18L262.286 1009.11C260.541 1010.56 258.687 1012.01 256.801 1013.36C255.197 1014.52 253.64 1015.55 252.152 1016.44L251.287 1016.94C244.735 1020.64 239.955 1021.08 238.356 1016.28C236.548 1010.86 241.946 1007.64 251.516 1005.75C254.274 1005.21 257.218 1004.82 260.161 1004.55L261.647 1004.43L263.005 1004.34C263.523 1004.31 263.896 1004.29 264.099 1004.28ZM267.612 1009.42L267.875 1009.78C269.22 1011.59 270.629 1013.38 272.063 1015.07C273.857 1017.19 275.591 1019.03 277.224 1020.51C280.982 1023.93 283.796 1025.1 285.272 1023.96C285.892 1023.48 285.943 1023 285.41 1022.04C284.772 1020.9 283.383 1019.48 281.366 1017.9C279.731 1016.62 277.728 1015.25 275.439 1013.84C273.54 1012.67 271.53 1011.52 269.497 1010.42L267.969 1009.61L267.612 1009.42ZM260.225 1007.28L258.979 1007.4C256.604 1007.65 254.253 1007.99 252.041 1008.42L250.926 1008.65C243.668 1010.23 239.99 1012.58 240.935 1015.42C241.761 1017.9 245.135 1017.44 250.763 1014.1C252.178 1013.26 253.67 1012.27 255.213 1011.16C256.677 1010.1 258.126 1008.99 259.516 1007.86L260.225 1007.28Z" fill="#CCD7EE"/>
            <path d="M275.503 992.034C276.189 992.096 276.709 992.657 276.738 993.326L276.734 993.511L275.712 1004.74C275.644 1005.49 274.983 1006.04 274.235 1005.97C273.549 1005.91 273.029 1005.35 273 1004.68L273.004 1004.5L274.026 993.264C274.089 992.579 274.649 992.059 275.318 992.029L275.503 992.034Z" fill="#CCD7EE"/>
            <path d="M257.635 988.46C258.321 988.523 258.841 989.084 258.871 989.753L258.866 989.937L257.844 1001.17C257.776 1001.92 257.115 1002.47 256.367 1002.4C255.682 1002.34 255.162 1001.78 255.132 1001.11L255.136 1000.92L256.158 989.691C256.221 989.006 256.782 988.485 257.451 988.456L257.635 988.46Z" fill="#CCD7EE"/>
            <path fill-rule="evenodd" clip-rule="evenodd" d="M100.573 982.308C103.042 841.978 156.113 546.17 163.735 469.983C171.36 393.797 144.242 367.994 118.246 380.564C92.2468 393.138 84.4662 568.92 84.4662 568.92C84.4662 568.92 82.6777 603.324 75.8922 642.501C51.3617 784.133 68.5796 984.322 68.5796 984.322C68.5796 984.322 73.3346 997.364 87.7258 995.626C102.112 993.889 100.573 982.308 100.573 982.308Z" fill="#FFC999"/>
            <path fill-rule="evenodd" clip-rule="evenodd" d="M116.313 350.699L118.045 340.197C118.045 340.197 164.828 340.237 220.653 340.581C221.035 345.939 222.568 352.45 222.568 352.45C222.568 352.45 182.232 365.978 116.313 350.699Z" fill="#002AB2"/>
            <path fill-rule="evenodd" clip-rule="evenodd" d="M229.746 275.61L225.817 285.649C225.817 285.649 224.738 335.248 224.738 339.178C171.135 347.854 116.853 338.497 116.853 338.497L117.117 320.139L112.752 263.824L229.746 275.61Z" fill="white"/>
            <path d="M228.933 274.856C229.109 274.407 229.615 274.186 230.064 274.361C230.463 274.517 230.682 274.935 230.603 275.341L230.559 275.492L226.684 285.389L225.121 338.261C225.107 338.943 225.1 339.422 225.1 339.686C225.1 340.106 224.8 340.467 224.387 340.544C193.466 346.281 161.825 345.964 132.719 341.983C128.568 341.416 124.8 340.811 121.46 340.203L120.362 340C119.309 339.803 118.365 339.617 117.535 339.446L115.894 339.095C115.532 339.011 115.268 338.71 115.224 338.353L115.218 338.196L116.246 319.652C116.273 319.171 116.684 318.802 117.166 318.829C117.593 318.853 117.932 319.181 117.983 319.591L117.989 319.749L117.001 337.55L117.408 337.637C118.028 337.767 118.722 337.908 119.485 338.056L120.684 338.285C124.262 338.956 128.373 339.627 132.956 340.254C161.262 344.125 191.987 344.512 222.064 339.191L223.361 338.954L223.503 333.122L224.22 308.637L224.945 285.186L225.004 284.896L228.933 274.856Z" fill="black"/>
            <path d="M160.13 87.0484C160.661 86.5175 161.522 86.5175 162.052 87.0484L162.33 87.3029C162.457 87.4132 162.619 87.5475 162.813 87.7009C163.477 88.2258 164.258 88.7536 165.145 89.2472C168.153 90.9203 171.586 91.7861 175.365 91.4196C176.112 91.3471 176.777 91.8942 176.849 92.6415C176.922 93.3889 176.374 94.0535 175.627 94.1259C171.255 94.55 167.285 93.5486 163.824 91.6234C162.068 90.6469 160.82 89.6608 160.13 88.971C159.599 88.4401 159.599 87.5793 160.13 87.0484Z" fill="#F5222D"/>
            <path d="M176.856 65.7964C177.393 65.8346 177.811 66.2585 177.858 66.7782L177.86 66.9667C177.834 67.6854 177.975 68.8902 178.449 70.5278C179.212 73.1661 180.637 76.128 182.893 79.3601C183.248 79.8681 183.105 80.5695 182.58 80.8987L181.173 81.7725C179.351 82.8926 177.744 83.8337 176.348 84.6095L175.834 84.8927C175.444 85.106 175.089 85.2964 174.767 85.4649L173.668 86.0197C173.641 86.0327 173.617 86.0437 173.597 86.053C173.053 86.3039 172.409 86.0667 172.159 85.5232C171.908 84.9797 172.145 84.3358 172.688 84.0849L173.192 83.8377L174.085 83.3737C174.306 83.256 174.543 83.1285 174.794 82.9908C176.089 82.2826 177.589 81.4165 179.297 80.3791L180.474 79.6546L180.205 79.2442C178.474 76.5579 177.281 74.0354 176.542 71.7077L176.367 71.1299C175.877 69.4367 175.693 68.0975 175.689 67.1583L175.698 66.8005C175.74 66.2034 176.259 65.7538 176.856 65.7964Z" fill="#DD936F"/>
            <path fill-rule="evenodd" clip-rule="evenodd" d="M181.217 320.288C181.217 320.288 239.326 335.698 265.833 317.224C294.645 297.145 259.362 220.737 250.135 200.83C242.214 183.736 224.945 172.661 209.228 170.041C193.764 167.465 181.946 166.548 181.946 166.548L178.55 153.31C178.055 151.382 176.317 150.032 174.327 150.032H127.999C125.828 150.032 123.991 151.629 123.682 153.775L121.893 166.314C121.893 166.314 82.8964 164.851 64.4387 181.942C46.7609 198.313 51.8682 235.053 66.6978 269.062C81.5248 303.072 94.0146 330.061 118.809 332.541C164.645 337.124 236.295 297.217 236.295 297.217C236.295 297.217 248.516 290.671 259.868 292.417C257.248 276.7 248.516 265.35 223.197 271.899L132.834 290.671" fill="white"/>
            <path fill-rule="evenodd" clip-rule="evenodd" d="M236.73 244.615C236.73 244.615 241.097 259.02 232.039 270.698L233.021 285.758L168.848 320.466C168.848 320.466 238.69 336.568 266.599 320.288C287.531 308.078 281.514 273.349 265.45 238.351C265.45 238.351 252.815 234.524 236.73 244.615Z" fill="#FFC999"/>
            <path fill-rule="evenodd" clip-rule="evenodd" d="M111.006 248.544L128.904 287.396L200.489 267.962C221.881 262.285 244.588 270.372 250.263 287.396C239.787 288.706 219.923 293.289 219.923 293.289C219.923 293.289 151.17 336.18 116.462 334.545C91.5715 333.37 81.8868 304.38 67.0572 270.372C67.0572 270.372 76.083 251.164 111.006 248.544Z" fill="#FFC999"/>
            <path d="M227.563 207.072C228.045 207.072 228.436 207.463 228.436 207.945L228.422 209.161L228.395 210.366C228.378 210.993 228.355 211.655 228.326 212.347C228.212 215.094 228.022 217.841 227.739 220.464L227.605 221.604L228.012 222.024C230.759 224.932 232.95 228.022 234.618 231.273L235.025 232.089C239.947 242.29 239.625 253.158 236.139 263.415C235.579 265.06 234.98 266.546 234.379 267.848L234.074 268.494L233.564 269.49C233.328 269.91 232.796 270.06 232.375 269.824C231.955 269.588 231.806 269.056 232.041 268.636L232.291 268.163C232.428 267.893 232.598 267.543 232.794 267.118C233.37 265.869 233.947 264.439 234.486 262.854C237.838 252.991 238.147 242.576 233.453 232.847C231.692 229.198 229.25 225.747 226.071 222.527C225.883 222.337 225.793 222.071 225.826 221.806C226.204 218.777 226.447 215.526 226.583 212.274L226.65 210.318L226.689 208.221L226.691 207.945C226.691 207.463 227.081 207.072 227.563 207.072Z" fill="black"/>
            <path d="M163.316 166.095C163.798 166.095 164.189 166.486 164.189 166.968C164.189 167.396 163.88 167.753 163.473 167.826L163.316 167.841H121.6C121.118 167.841 120.728 167.45 120.728 166.968C120.728 166.539 121.036 166.183 121.443 166.109L121.6 166.095H163.316Z" fill="black"/>
            <path d="M182.922 166.22C183.062 165.675 183.618 165.347 184.163 165.487C184.654 165.613 184.969 166.076 184.924 166.564L184.896 166.728L171.145 220.205C170.959 220.929 170.099 221.196 169.537 220.76L169.413 220.647L119.43 167.17C119.045 166.759 119.067 166.114 119.478 165.729C119.844 165.388 120.394 165.367 120.782 165.655L120.919 165.778L169.632 217.898L182.922 166.22Z" fill="black"/>
            <path fill-rule="evenodd" clip-rule="evenodd" d="M184.632 225.906C189.258 233.708 187.171 243.492 179.977 247.76C172.777 252.029 163.192 249.162 158.566 241.362C153.94 233.56 156.024 223.776 163.221 219.508C170.421 215.24 180.003 218.104 184.632 225.906Z" fill="#464646"/>
            <path fill-rule="evenodd" clip-rule="evenodd" d="M186.292 225.868C190.92 233.67 188.833 243.454 181.636 247.72C174.439 251.988 164.854 249.123 160.228 241.321C155.603 233.519 157.687 223.738 164.884 219.47C172.081 215.201 181.666 218.066 186.292 225.868Z" fill="black"/>
            <path fill-rule="evenodd" clip-rule="evenodd" d="M183.356 227.227C186.946 233.283 185.327 240.881 179.738 244.195C174.152 247.508 166.711 245.284 163.12 239.227C159.527 233.168 161.143 225.573 166.732 222.259C172.321 218.943 179.762 221.17 183.356 227.227Z" fill="#C961DE"/>
            <path d="M150.896 120.934C151.182 120.408 151.84 120.213 152.366 120.499C158.295 123.725 164.438 125.345 170.603 125.429C171.202 125.437 171.68 125.929 171.672 126.528C171.664 127.126 171.172 127.605 170.574 127.597C164.055 127.508 157.567 125.796 151.33 122.404C150.805 122.118 150.61 121.459 150.896 120.934Z" fill="#DD936F"/>
            <path fill-rule="evenodd" clip-rule="evenodd" d="M160.414 278.681C160.414 278.681 134.275 256.781 118.211 257.929C102.929 259.021 93.7637 271.463 96.3805 278.447C96.3805 278.447 92.8923 284.56 98.5644 286.524C97.8006 290.999 104.239 290.671 104.239 290.671C104.239 290.671 103.15 293.508 107.733 294.162C112.316 294.818 117.377 285.429 129.275 287.36L160.414 278.681Z" fill="#FFC999"/>
            <path d="M117.556 256.275C110.398 256.786 102.717 261.885 97.1982 268.697C94.8821 271.555 93.2863 274.371 92.837 276.433L92.7833 276.71C92.4898 278.437 93.0819 279.673 94.3513 280.078L94.431 280.099L94.3322 280.329C93.9741 281.206 93.801 282.096 93.8916 282.981L93.935 283.293C94.171 284.627 95.029 285.725 96.5117 286.495L96.8425 286.655L96.842 286.729C96.8574 288.861 98.2942 290.213 100.51 290.821L100.979 290.937C101.447 291.04 101.913 291.107 102.358 291.146L102.481 291.153L102.49 291.241C102.541 291.644 102.672 292.052 102.903 292.452C103.57 293.604 104.926 294.364 107.005 294.661C108.163 294.827 109.309 294.535 110.667 293.832L111.082 293.609C111.925 293.137 115.142 291.013 115.18 290.989C119.669 288.154 123.47 287.035 128.527 287.856C128.675 287.88 128.827 287.873 128.972 287.836L161.31 279.48C162.171 279.257 162.412 278.15 161.722 277.589L160.557 276.668L159.372 275.756C158.749 275.282 158.08 274.781 157.369 274.258C153.987 271.767 150.35 269.276 146.597 266.95C142.264 264.265 138.055 261.975 134.067 260.201C127.963 257.485 122.602 256.074 118.157 256.242L117.556 256.275ZM133.186 262.181C137.075 263.912 141.201 266.156 145.455 268.793C149.155 271.086 152.745 273.545 156.084 276.003L157.642 277.165L158.644 277.928L128.643 285.681L128.874 285.717C123.436 284.834 119.252 285.97 114.585 288.807L114.023 289.156C113.922 289.22 110.785 291.291 110.024 291.717C108.856 292.37 108.02 292.616 107.312 292.515C105.838 292.305 105.075 291.877 104.779 291.366C104.657 291.155 104.619 290.923 104.64 290.699L104.677 290.486C104.937 289.806 104.469 289.086 103.762 289.019L103.561 289.016C102.846 289.036 101.935 288.964 101.084 288.731C99.5094 288.299 98.8197 287.54 99.0609 286.133C99.1505 285.61 98.8485 285.099 98.3473 284.926C96.7863 284.385 96.1402 283.66 96.048 282.76C95.9826 282.121 96.1932 281.364 96.6002 280.592C96.8223 280.171 97.0426 279.849 97.1742 279.686C97.8254 278.879 97.0796 277.706 96.0722 277.953L95.6818 278.04C94.8127 278.203 94.7243 277.954 94.9551 276.894C95.3192 275.223 96.7605 272.681 98.8825 270.061C104.059 263.672 111.25 258.899 117.711 258.437C121.847 258.141 127.1 259.474 133.186 262.181Z" fill="#DD936F"/>
            <path d="M117.422 263.838C118.016 263.764 118.557 264.185 118.631 264.779C118.706 265.373 118.284 265.915 117.69 265.989C113.568 266.505 109.101 268.857 104.606 272.469C102.785 273.932 101.085 275.502 99.5561 277.071L98.7999 277.863L97.8842 278.87C97.7762 278.993 97.697 279.085 97.6478 279.144C97.2631 279.602 96.5794 279.662 96.1208 279.277C95.6623 278.893 95.6026 278.209 95.9873 277.75L96.5245 277.137C96.9526 276.66 97.4475 276.129 98.0035 275.558C99.5906 273.93 101.353 272.301 103.248 270.779C108.028 266.938 112.823 264.413 117.422 263.838Z" fill="#DD936F"/>
            <path d="M124.631 269.69C125.229 269.671 125.73 270.139 125.75 270.738C125.77 271.336 125.301 271.837 124.703 271.857C124.341 271.869 123.975 271.893 123.607 271.927C118.491 272.412 112.93 275.033 107.316 279.112C105.103 280.719 103.036 282.443 101.175 284.166C100.686 284.618 100.239 285.046 99.8358 285.442L98.9201 286.367C98.8919 286.397 98.8677 286.423 98.8475 286.445C98.4394 286.882 97.7536 286.907 97.3157 286.498C96.8778 286.09 96.8537 285.404 97.2618 284.967L97.911 284.299L98.7486 283.476C99.0474 283.188 99.3655 282.887 99.7021 282.575C101.623 280.797 103.755 279.019 106.042 277.358C111.942 273.072 117.828 270.297 123.402 269.769C123.815 269.73 124.224 269.704 124.631 269.69Z" fill="#DD936F"/>
            <path d="M124.597 276.582C125.195 276.544 125.71 276.998 125.748 277.595C125.786 278.192 125.332 278.707 124.735 278.745C122.885 278.863 120.586 279.658 117.96 281.033C116.109 282.002 114.143 283.234 112.112 284.667C110.237 285.991 108.41 287.411 106.707 288.832L105.859 289.549L104.531 290.715C104.09 291.12 103.405 291.091 103 290.65C102.595 290.209 102.625 289.523 103.066 289.118L103.673 288.576L104.448 287.903C104.723 287.668 105.013 287.422 105.319 287.167C107.063 285.712 108.935 284.256 110.862 282.896C112.966 281.412 115.01 280.131 116.954 279.113C119.826 277.609 122.39 276.722 124.597 276.582Z" fill="#DD936F"/>
            <path d="M100.633 220.177C101.036 220.034 101.475 220.205 101.682 220.564L101.747 220.707L111.392 247.814C111.588 248.366 111.196 248.95 110.611 248.978L110.109 249.01C109.69 249.04 109.204 249.082 108.655 249.136C107.082 249.292 105.327 249.522 103.437 249.84C98.0383 250.747 92.6411 252.174 87.6127 254.229C78.4153 257.988 71.5221 263.41 67.8371 270.761C67.6211 271.192 67.0966 271.366 66.6658 271.15C66.2349 270.934 66.0607 270.41 66.2767 269.979C70.1774 262.198 77.3976 256.518 86.9523 252.613C92.1119 250.504 97.6305 249.046 103.148 248.119C104.756 247.848 106.27 247.64 107.662 247.486L108.894 247.36L109.363 247.317L100.103 221.292C99.9593 220.889 100.131 220.449 100.49 220.243L100.633 220.177Z" fill="black"/>
            <path d="M244.816 239.767C251.539 236.864 258.678 235.679 265.728 237.215C266.199 237.318 266.497 237.783 266.395 238.254C266.292 238.725 265.827 239.023 265.356 238.921C258.711 237.472 251.924 238.599 245.508 241.37C244.208 241.931 243.011 242.525 241.932 243.125L241.298 243.485C240.561 243.914 240.049 244.244 239.79 244.427C239.396 244.704 238.851 244.609 238.574 244.215C238.296 243.821 238.391 243.277 238.785 242.999L239.22 242.71C239.564 242.487 239.965 242.241 240.421 241.976C241.717 241.222 243.19 240.47 244.816 239.767Z" fill="black"/>
            <path d="M231.639 268.815C231.875 268.265 232.512 268.01 233.062 268.246C236.91 269.895 240.456 272.54 243.685 275.904C245.657 277.958 247.391 280.156 248.876 282.355C249.266 282.932 249.618 283.48 249.932 283.989L250.475 284.902C250.58 285.083 250.657 285.223 250.707 285.318C251.024 285.912 250.727 286.633 250.115 286.849L249.956 286.892L230.196 290.692L164.971 323.43C164.489 323.671 163.914 323.52 163.608 323.098L163.516 322.947C163.274 322.466 163.425 321.89 163.848 321.584L163.999 321.492L229.358 288.689L229.639 288.593L248.04 285.053L247.774 284.627C247.667 284.458 247.555 284.285 247.439 284.109L247.08 283.568C245.66 281.466 244.001 279.364 242.121 277.405C239.079 274.236 235.761 271.761 232.209 270.238C231.658 270.003 231.403 269.365 231.639 268.815Z" fill="#DD936F"/>
            <path d="M117.078 350.172C117.256 349.638 117.834 349.35 118.368 349.529L119.464 349.875L120.428 350.164C121.106 350.363 121.854 350.576 122.669 350.8C126.166 351.759 130.17 352.719 134.615 353.616C162.813 359.302 192.83 359.73 221.136 351.472C221.676 351.314 222.242 351.625 222.4 352.165C222.558 352.705 222.247 353.271 221.707 353.429C193.04 361.793 162.706 361.36 134.212 355.614C129.72 354.708 125.671 353.737 122.129 352.766L120.939 352.433C120.369 352.272 119.838 352.116 119.346 351.969L117.983 351.547C117.875 351.513 117.788 351.484 117.721 351.462C117.187 351.283 116.899 350.706 117.078 350.172Z" fill="#253368"/>
            <path d="M162.62 65.6545C163.342 65.6545 163.928 66.2403 163.928 66.9629C163.928 71.9902 160.143 76.1085 155.415 76.1085C150.689 76.1085 146.907 71.9901 146.907 66.9629C146.907 66.2403 147.493 65.6545 148.215 65.6545C148.938 65.6545 149.524 66.2403 149.524 66.9629C149.524 70.5922 152.187 73.4916 155.415 73.4916C158.646 73.4916 161.311 70.5919 161.311 66.9629C161.311 66.2403 161.897 65.6545 162.62 65.6545Z" fill="#253368"/>
            <path d="M195.626 66.5541C196.312 66.5541 196.867 67.1098 196.867 67.7953C196.867 72.7619 193.467 76.8736 189.145 76.8736C184.822 76.8736 181.422 72.7619 181.422 67.7953C181.422 67.1098 181.978 66.5541 182.663 66.5541C183.349 66.5541 183.904 67.1098 183.904 67.7953C183.904 71.484 186.308 74.3911 189.145 74.3911C191.981 74.3911 194.385 71.484 194.385 67.7953C194.385 67.1098 194.941 66.5541 195.626 66.5541Z" fill="#253368"/>
            <path d="M147.838 51.5643C152.832 49.4563 158.12 49.6676 163.119 51.2732C164.555 51.7347 165.628 52.2009 166.243 52.5253C166.882 52.8626 167.127 53.6541 166.79 54.2932C166.452 54.9323 165.661 55.1769 165.022 54.8397L164.693 54.68C164.592 54.633 164.471 54.579 164.333 54.5189C163.744 54.2629 163.068 54.0055 162.318 53.7647C157.863 52.3336 153.187 52.1468 148.855 53.9752C148.065 54.3089 147.294 54.7084 146.545 55.1766C145.932 55.5596 145.125 55.3734 144.742 54.7606C144.359 54.1479 144.545 53.3406 145.158 52.9576C146.025 52.4153 146.92 51.9518 147.838 51.5643Z" fill="#253368"/>
            <path fill-rule="evenodd" clip-rule="evenodd" d="M218.358 350.153C241.328 351.683 297.487 496.09 318.672 547.714C316.049 558.192 299.528 576.814 299.528 576.814C299.528 576.814 301.413 585.108 302.573 590.092C283.176 606.428 245.4 615.618 245.4 615.618V622.764C185.159 651.352 103.749 625.566 103.749 625.566C103.749 625.566 102.216 624.036 103.238 618.42C75.736 618.42 16.4551 584.216 16.4551 584.216L24.6229 566.861L0.119354 542.354C0.119354 542.354 74.9991 414.296 87.7552 386.143C101.964 354.786 117.662 348.964 117.662 348.964C117.662 348.964 177.596 347.433 218.358 350.153Z" fill="#002AB2"/>
            <path d="M89.0449 430.627C89.2871 430.119 89.8954 429.904 90.4036 430.146C90.861 430.364 91.0814 430.878 90.9443 431.349L90.8853 431.504L18.7551 582.873L19.6623 583.524L20.4316 584.062C22.3735 585.409 24.6621 586.91 27.2825 588.529C34.7768 593.156 43.4215 597.786 53.0981 602.107C68.633 609.045 85.3122 614.506 102.921 617.932C103.474 618.039 103.835 618.574 103.727 619.127C103.62 619.679 103.084 620.04 102.532 619.933C84.7633 616.476 67.9375 610.967 52.2668 603.969C42.5042 599.609 33.7801 594.937 26.2114 590.263C23.8544 588.808 21.7605 587.444 19.9399 586.199L19.2701 585.738C18.8552 585.45 18.4736 585.182 18.1256 584.933L17.1557 584.23C17.0198 584.129 16.9194 584.054 16.855 584.005C16.5197 583.749 16.3815 583.318 16.4911 582.923L16.5534 582.756L89.0449 430.627Z" fill="black"/>
            <path d="M235.596 417.355C236.068 417.17 236.594 417.361 236.844 417.784L236.917 417.933L304.546 590.741C304.72 591.185 304.562 591.691 304.166 591.958L303.691 592.27C303.306 592.521 302.851 592.811 302.33 593.137L300.997 593.96C299.838 594.667 298.558 595.423 297.166 596.219C291.601 599.403 285.368 602.586 278.615 605.557C267.901 610.27 256.901 613.995 245.869 616.36C245.319 616.478 244.777 616.127 244.659 615.577C244.541 615.026 244.891 614.484 245.442 614.366C256.328 612.033 267.199 608.352 277.794 603.691C284.479 600.751 290.648 597.6 296.154 594.45C298.079 593.348 299.784 592.326 301.248 591.409L302.345 590.711L235.019 418.676C234.834 418.204 235.025 417.678 235.447 417.428L235.596 417.355Z" fill="black"/>
            <path d="M197.47 377.488C198.021 377.373 198.562 377.726 198.677 378.277L202.357 395.992C203.666 402.324 205.059 409.102 206.525 416.264L207.862 422.811C214.221 453.981 220.58 485.777 226.577 516.622L228.069 524.313C229.171 530.008 230.251 535.625 231.308 541.157L233.598 553.193C238.537 579.293 242.846 602.944 246.403 623.613C246.487 624.103 246.206 624.582 245.738 624.747C242.325 625.951 238.862 627.057 235.353 628.065C198.789 638.569 159.799 638.233 123.086 631.364C117.457 630.311 112.382 629.182 107.944 628.053L106.452 627.667C105.976 627.541 105.522 627.419 105.089 627.301L103.311 626.802C102.901 626.684 102.605 626.595 102.426 626.54C101.982 626.402 101.695 625.985 101.708 625.535L101.729 625.364L136.972 450.797C137.083 450.246 137.621 449.889 138.173 450C138.669 450.1 139.008 450.546 138.99 451.036L138.97 451.201L103.912 624.853L105.628 625.335C106.481 625.568 107.422 625.816 108.446 626.077C112.844 627.196 117.876 628.315 123.461 629.36C159.889 636.175 198.576 636.51 234.79 626.106C237.567 625.308 240.313 624.449 243.029 623.527L244.246 623.105L242.932 615.538C239.554 596.24 235.58 574.582 231.099 550.954L230.094 545.671C228.788 538.811 227.444 531.817 226.067 524.7C220.628 496.587 214.86 467.564 209.042 438.845L203.229 410.333L196.682 378.695C196.566 378.144 196.919 377.604 197.47 377.488Z" fill="black"/>
            <path d="M168.365 380.788C168.871 380.816 169.271 381.208 169.325 381.696L169.329 381.861L160.414 550.065C160.384 550.627 159.904 551.059 159.342 551.031C158.836 551.002 158.436 550.611 158.382 550.123L158.378 549.957L167.293 381.754C167.323 381.191 167.803 380.76 168.365 380.788Z" fill="black"/>
            <path d="M138.515 355.194C138.691 354.659 139.267 354.367 139.802 354.543C140.283 354.701 140.567 355.183 140.491 355.668L140.452 355.83L106.762 458.44C106.586 458.975 106.01 459.266 105.475 459.091C104.994 458.933 104.71 458.45 104.786 457.965L104.825 457.804L138.515 355.194Z" fill="black"/>
            <path fill-rule="evenodd" clip-rule="evenodd" d="M69.5317 988.283C69.2062 989.719 64.3168 938.342 64.5508 923.193C84.8454 925.874 103.607 923.959 103.607 923.959C103.607 923.959 100.926 982.538 101.692 988.283C87.1422 997.088 69.5317 988.283 69.5317 988.283Z" fill="#597EF7"/>
            <path fill-rule="evenodd" clip-rule="evenodd" d="M73.6971 1057.8C76.2172 1078.11 87.1417 1088.85 98.4132 1090.04C112.371 1091.51 127.57 1087.58 130.025 1075.07C132.827 1060.79 125.477 1053.48 117.266 1033.06C109.055 1012.64 105.137 995.174 102.076 980.627C102.076 980.627 91.6089 974.5 94.4167 992.111C96.692 1006.37 102.203 1046.48 111.901 1049.29C102.455 1048.52 83.0564 1055.92 83.0564 1055.92C83.0564 1055.92 89.9495 1045.2 89.4412 1041.63C88.9302 1038.06 83.2259 1001.44 82.9327 990.58C82.6396 979.839 73.3206 981.135 68.8292 982.391C67.4307 982.781 66.5405 984.131 66.7099 985.575C67.1349 989.152 72.5057 1048.18 73.6971 1057.8Z" fill="#4E5C93"/>
            <path fill-rule="evenodd" clip-rule="evenodd" d="M78.7189 1003.98C78.7189 1003.98 67.0763 979.607 78.7189 977.181C87.9088 975.266 96.714 974.881 97.8624 977.181C98.2901 978.036 98.247 985.986 101.308 1002.45C104.885 1021.67 114.026 1044.21 117.391 1048.78C122.751 1056.05 117.006 1056.43 103.989 1059.88C90.972 1063.33 86.3785 1063.33 82.9306 1056.43C79.4854 1049.54 79.4854 1018.91 78.7189 1003.98Z" fill="#4E5C93"/>
            <path d="M101.199 1009.99C101.898 1009.72 102.686 1010.06 102.958 1010.76C103.231 1011.46 102.884 1012.25 102.184 1012.52C100.591 1013.14 98.8302 1014 96.9325 1015.07C95.1064 1016.1 93.1826 1017.31 91.1948 1018.66C89.286 1019.96 87.398 1021.33 85.5844 1022.72L84.5696 1023.51L84.6337 1023.51C86.1671 1023.57 87.7941 1023.74 89.5061 1024.02L90.3691 1024.17C93.7156 1024.77 97.2651 1025.74 100.893 1026.98C103.116 1027.73 105.233 1028.54 107.177 1029.35L108.145 1029.77L109.672 1030.45C110.909 1031.03 110.609 1032.87 109.252 1033.03C104.123 1033.63 98.6144 1036.38 93.0982 1040.6C90.8654 1042.31 88.7863 1044.14 86.9188 1045.98C86.5271 1046.36 86.162 1046.73 85.825 1047.08L85.1889 1047.74C84.8932 1048.06 84.6923 1048.28 84.5931 1048.4C84.0987 1048.96 83.2398 1049.02 82.6747 1048.52C82.1096 1048.03 82.0523 1047.17 82.5467 1046.61L83.0255 1046.08L83.2043 1045.89C83.7278 1045.33 84.3333 1044.71 85.014 1044.04C86.9566 1042.13 89.1179 1040.22 91.4455 1038.44C95.6714 1035.21 99.9213 1032.77 104.099 1031.41L104.615 1031.25L103.783 1030.92C102.977 1030.61 102.148 1030.3 101.3 1030L100.016 1029.55C96.5079 1028.35 93.0854 1027.42 89.8866 1026.84C86.3745 1026.21 83.2688 1026.03 80.6901 1026.39C79.3445 1026.57 78.5913 1024.88 79.6254 1024L80.4183 1023.34L81.6459 1022.35C81.9382 1022.12 82.2432 1021.87 82.5599 1021.63C84.822 1019.85 87.2244 1018.07 89.6663 1016.41C91.713 1015.02 93.6996 1013.77 95.5965 1012.7C97.5994 1011.57 99.4733 1010.66 101.199 1009.99Z" fill="#CCD7EE"/>
            <path d="M80.2135 1013.5C82.844 1012.92 86.0276 1012.89 89.6568 1013.33C92.5636 1013.68 95.6508 1014.31 98.7963 1015.15C100.185 1015.51 101.516 1015.9 102.763 1016.3L104.067 1016.72L105.612 1017.26C106.794 1017.7 106.793 1019.37 105.611 1019.81C101.09 1021.48 96.6915 1024.1 92.501 1027.42C90.1489 1029.28 87.9874 1031.25 86.0485 1033.25L85.0095 1034.34L84.4835 1034.91L86.2195 1034.95C86.6977 1034.96 87.1919 1034.97 87.7007 1034.99L88.4747 1035.03C92.3875 1035.19 96.2508 1035.52 99.8723 1036.05C106.419 1037 111.597 1038.52 114.953 1040.75C115.578 1041.17 115.747 1042.01 115.33 1042.64C114.914 1043.26 114.07 1043.43 113.445 1043.02C110.505 1041.06 105.66 1039.64 99.4802 1038.74C95.9593 1038.23 92.185 1037.91 88.3579 1037.74C86.5646 1037.66 84.9378 1037.63 83.5454 1037.62L81.5573 1037.63C80.4125 1037.65 79.7516 1036.34 80.4546 1035.44L81.0218 1034.74L81.1913 1034.54C81.7806 1033.84 82.4687 1033.07 83.2501 1032.24C85.4791 1029.87 88.0145 1027.5 90.8143 1025.28C94.0407 1022.73 97.3959 1020.56 100.854 1018.89L101.282 1018.68L101.023 1018.6C100.399 1018.41 99.7566 1018.23 99.0983 1018.04L98.0996 1017.77C95.0675 1016.97 92.1 1016.36 89.3318 1016.03C85.982 1015.62 83.0884 1015.65 80.8033 1016.15C80.0703 1016.32 79.3441 1015.85 79.1813 1015.12C79.0184 1014.39 79.4806 1013.66 80.2135 1013.5Z" fill="#CCD7EE"/>
            <path fill-rule="evenodd" clip-rule="evenodd" d="M74.8896 1061.8C74.8896 1061.8 102.456 1038.82 127.727 1055.67C134.044 1069.75 130.392 1078.12 127.345 1082.47C126.083 1084.27 123.692 1086.78 121.63 1087.52C115.476 1089.74 99.3421 1094.2 87.9092 1086.68C73.3593 1077.11 74.8896 1061.8 74.8896 1061.8Z" fill="#CCD7EE"/>
            <path d="M125.603 1055.54C125.955 1055.35 126.393 1055.49 126.58 1055.84C130.146 1062.53 126.404 1071.2 121.236 1074.65C117.557 1077.1 104.573 1079.32 94.258 1078.85C89.1343 1078.62 85.0151 1075.45 81.805 1070.35C80.6515 1068.52 79.6973 1066.57 78.9291 1064.61C78.7274 1064.1 78.5494 1063.61 78.3946 1063.16L78.1305 1062.35C78.0811 1062.19 78.0452 1062.07 78.0225 1061.99C77.917 1061.6 78.1434 1061.2 78.528 1061.1C78.9126 1060.99 79.3099 1061.22 79.4153 1061.6L79.621 1062.27L79.9169 1063.14C80.0255 1063.44 80.1443 1063.76 80.2733 1064.09C81.0105 1065.96 81.9257 1067.84 83.0267 1069.58C86.0097 1074.32 89.7564 1077.2 94.3237 1077.41C104.36 1077.87 117.065 1075.69 120.435 1073.45C125.049 1070.37 128.467 1062.45 125.306 1056.52C125.118 1056.17 125.251 1055.73 125.603 1055.54Z" fill="#A3B5D6"/>
            <path d="M64.373 932.098C64.5302 931.364 65.2528 930.896 65.987 931.053L67.1263 931.276L67.7053 931.38C69.1062 931.629 70.699 931.879 72.4529 932.112C81.2627 933.282 90.4183 933.599 98.9454 932.547C99.8015 932.441 100.646 932.322 101.478 932.188C102.219 932.07 102.916 932.574 103.035 933.316C103.154 934.057 102.649 934.754 101.908 934.873C101.043 935.012 100.167 935.135 99.2785 935.245C90.4894 936.33 81.1151 936.005 72.095 934.807C70.5994 934.609 69.2169 934.398 67.9648 934.185L66.5167 933.928L65.4179 933.712C64.6837 933.555 64.2159 932.832 64.373 932.098Z" fill="#CCD7EE"/>
            <path d="M89.0509 998.16L89.2358 998.155L90.3298 998.211C91.1886 998.262 92.1446 998.333 93.1736 998.426C96.1166 998.692 99.061 999.084 101.819 999.627C111.389 1001.51 116.787 1004.73 114.979 1010.15C113.309 1015.16 108.176 1014.47 101.183 1010.31C99.6945 1009.43 98.137 1008.39 96.5332 1007.24C94.6468 1005.88 92.7928 1004.43 91.0482 1002.98L90.6009 1002.6L89.9538 1002.05L89.0905 1003.28L88.6607 1003.88C86.9825 1006.21 85.1872 1008.53 83.3444 1010.7C81.4809 1012.9 79.6692 1014.82 77.9405 1016.4C73.2777 1020.64 69.358 1022.26 66.4053 1019.99C64.6168 1018.61 64.4081 1016.64 65.5501 1014.59C66.4016 1013.07 68.0104 1011.43 70.2853 1009.64C72.0115 1008.28 74.0983 1006.86 76.4701 1005.4C78.9008 1003.9 81.5002 1002.44 84.0989 1001.08L85.4115 1000.39L87.5736 999.31C87.63 999.283 87.6873 999.26 87.7452 999.241L87.8615 999.211L87.8887 999.103C88.0502 998.591 88.5056 998.214 89.0509 998.16ZM85.7189 1003.3L85.3651 1003.48C82.8168 1004.82 80.269 1006.26 77.8959 1007.72C75.6053 1009.13 73.6004 1010.49 71.965 1011.78C69.9492 1013.36 68.5615 1014.78 67.9244 1015.92C67.3917 1016.87 67.4431 1017.36 68.0629 1017.83C69.5382 1018.97 72.3527 1017.8 76.1107 1014.39C77.7431 1012.9 79.4773 1011.06 81.2705 1008.95C82.7047 1007.25 84.1138 1005.46 85.4596 1003.65L85.7189 1003.3ZM93.1059 1001.15L93.8183 1001.74C95.2088 1002.86 96.6568 1003.98 98.1209 1005.03C99.6643 1006.14 101.157 1007.13 102.572 1007.97C108.199 1011.32 111.572 1011.77 112.399 1009.3C113.392 1006.32 109.287 1003.87 101.293 1002.29C99.0812 1001.86 96.7304 1001.52 94.3557 1001.27L93.1059 1001.15Z" fill="#CCD7EE"/>
            <path d="M77.8316 985.908C78.5171 985.845 79.1298 986.303 79.2795 986.956L79.3085 987.139L80.3278 998.37C80.3956 999.118 79.8445 999.779 79.0967 999.847C78.4113 999.909 77.7985 999.451 77.6489 998.798L77.6199 998.616L76.6006 987.384C76.5327 986.637 77.0839 985.975 77.8316 985.908Z" fill="#CCD7EE"/>
            <path d="M95.6993 982.334C96.3847 982.272 96.9974 982.73 97.1471 983.383L97.1761 983.565L98.1954 994.797C98.2633 995.544 97.7121 996.206 96.9643 996.273C96.2789 996.336 95.6662 995.878 95.5166 995.225L95.4875 995.042L94.4682 983.811C94.4003 983.063 94.9515 982.402 95.6993 982.334Z" fill="#CCD7EE"/>
            </svg>
            
    